<?xml version="1.0" encoding="utf-8"?>
<!-- Generator: Adobe Illustrator 16.0.0, SVG Export Plug-In . SVG Version: 6.00 Build 0)  -->
<!DOCTYPE svg PUBLIC "-//W3C//DTD SVG 1.1//EN" "http://www.w3.org/Graphics/SVG/1.1/DTD/svg11.dtd">
<svg version="1.1" id="Layer_1" xmlns="http://www.w3.org/2000/svg" xmlns:xlink="http://www.w3.org/1999/xlink" x="0px" y="0px"
	 width="375px" height="100px" viewBox="0 0 375 100" enable-background="new 0 0 375 100" xml:space="preserve">
<path fill="#FC9115" d="M354,0H21C9.402,0,0,9.402,0,21v90.5c0,11.598,9.402,21,21,21h333c11.598,0,21-9.402,21-21V21
	C375,9.402,365.598,0,354,0z M187.5,15.5c3.313,0,6,2.687,6,6s-2.687,6-6,6s-6-2.687-6-6S184.187,15.5,187.5,15.5z M111,69.75
	c-6.351,0-11.5-5.148-11.5-11.5s5.149-11.5,11.5-11.5s11.5,5.148,11.5,11.5S117.351,69.75,111,69.75z M221,59.75
	c0,2.898-2.352,5.25-5.25,5.25h-57.5c-2.899,0-5.25-2.352-5.25-5.25v-0.5c0-2.898,2.351-5.25,5.25-5.25h57.5
	c2.898,0,5.25,2.352,5.25,5.25V59.75z"/>
</svg>
